<?xml version="1.0" standalone="no"?>
<!DOCTYPE svg PUBLIC "-//W3C//DTD SVG 20010904//EN"
 "http://www.w3.org/TR/2001/REC-SVG-20010904/DTD/svg10.dtd">
<svg version="1.0" xmlns="http://www.w3.org/2000/svg"
 width="520.000000pt" height="520.000000pt" viewBox="0 0 520.000000 520.000000"
 preserveAspectRatio="xMidYMid meet">
<metadata>
Created by potrace 1.11, written by Peter Selinger 2001-2013
</metadata>
<g transform="translate(0.000000,520.000000) scale(0.100000,-0.100000)"
fill="#000000" stroke="none">
<path d="M891 4489 c-350 -46 -599 -286 -740 -714 -107 -325 -146 -635 -146
-1175 0 -540 39 -850 146 -1175 129 -392 338 -616 649 -698 l85 -22 1715 0
1715 0 85 22 c458 121 700 550 782 1388 17 172 17 798 0 970 -60 608 -199 986
-447 1213 -80 73 -207 140 -330 175 l-80 22 -1685 1 c-927 1 -1714 -2 -1749
-7z m1104 -694 c252 -70 449 -276 540 -565 15 -47 30 -94 35 -105 5 -12 9 117
9 308 l1 327 265 0 265 0 335 -667 c333 -664 335 -668 330 -603 -3 36 -8 336
-11 668 l-6 602 266 0 266 0 0 -1165 0 -1165 -270 0 -270 0 -328 662 -327 661
3 -661 4 -662 -261 0 -261 0 0 338 c-1 313 -6 367 -25 272 -4 -19 -23 -75 -42
-125 -110 -281 -293 -457 -534 -515 -105 -25 -286 -27 -397 -4 -95 19 -239 88
-308 146 -179 153 -289 387 -341 728 -21 143 -24 530 -5 665 68 476 286 781
619 865 66 17 103 19 233 16 103 -3 175 -10 215 -21z"/>
<path d="M1681 3286 c-76 -27 -142 -124 -174 -256 -32 -131 -40 -238 -34 -500
7 -349 37 -479 129 -567 126 -121 330 -58 397 123 46 121 56 212 55 509 0 309
-13 410 -69 532 -63 139 -185 202 -304 159z"/>
</g>
</svg>
